<svg xmlns="http://www.w3.org/2000/svg" viewBox="0 0 32 32" fill="none">
  <rect width="32" height="32" rx="8" fill="#4F46E5"/>
  <path d="M12 16h5M12 20h5M12 24h5m4 1h2.5a3 3 0 0 0 3-3V8.8c0-1.5-1.1-2.8-2.6-2.9a64 64 0 0 0-1.5-.1m-7.7 0c-.1.3-.1.6-.1.9 0 .6.4 1 1 1h6a1 1 0 0 0 1-1c0-.3 0-.6-.1-.9m-7.7 0A3 3 0 0 1 18 4h2a3 3 0 0 1 2.9 2.1m-7.7 0c-.5 0-1 .1-1.5.1C12.1 6.3 11 7.6 11 9.1V11m0 0H6.5A1.5 1.5 0 0 0 5 12.5v15A1.5 1.5 0 0 0 6.5 29h13a1.5 1.5 0 0 0 1.5-1.5v-15a1.5 1.5 0 0 0-1.5-1.5H11Z" stroke="white" stroke-width="1.5" stroke-linecap="round" stroke-linejoin="round"/>
  <circle cx="9" cy="16" r="0.75" fill="white"/>
  <circle cx="9" cy="20" r="0.75" fill="white"/>
  <circle cx="9" cy="24" r="0.75" fill="white"/>
</svg>
